<svg width="1920" height="1050" viewBox="0 0 1920 1050" fill="none" xmlns="http://www.w3.org/2000/svg">
<path opacity="0.0416667" d="M231.8 -1028.29L-521.938 -1294.38L-663.048 -713.905L-149.814 88.2211L647.584 200.801L935.083 -883.932" stroke="#DBDBDB"/>
<path opacity="0.0833333" d="M364.97 -997.561L-362.71 -1328.32L-553.874 -762.358L-112.503 81.4467L672.049 263.096L1052.99 -792.452" stroke="#DBDBDB"/>
<path opacity="0.125" d="M494.746 -955.147L-201.336 -1348.07L-441.1 -800.921L-74.9513 78.1404L690.784 327.477L1162.28 -690.853" stroke="#DBDBDB"/>
<path opacity="0.166667" d="M620.124 -901.393L-39.0641 -1353.49L-325.603 -829.319L-37.463 78.31L703.627 393.436L1262.08 -579.926" stroke="#DBDBDB"/>
<path opacity="0.208333" d="M740.132 -836.725L122.856 -1344.56L-208.278 -847.351L-0.339121 81.9369L710.466 460.454L1351.63 -460.532" stroke="#DBDBDB"/>
<path opacity="0.25" d="M853.84 -761.654L283.172 -1321.35L-90.0352 -854.899L36.1195 88.9757L711.23 528.003L1430.22 -333.597" stroke="#DBDBDB"/>
<path opacity="0.291667" d="M960.364 -676.768L440.649 -1284.07L28.2076 -851.922L71.6181 99.356L705.896 595.553L1497.24 -200.105" stroke="#DBDBDB"/>
<path opacity="0.333333" d="M1058.88 -582.73L594.069 -1233.02L145.533 -838.46L105.868 112.981L694.486 662.571L1552.17 -61.0881" stroke="#DBDBDB"/>
<path opacity="0.375" d="M1148.61 -480.273L742.248 -1168.6L261.03 -814.634L138.593 129.73L677.071 728.53L1594.56 82.3766" stroke="#DBDBDB"/>
<path opacity="0.416667" d="M1228.86 -370.196L884.04 -1091.32L373.804 -780.641L169.526 149.458L653.766 792.911L1624.08 229.181" stroke="#DBDBDB"/>
<path opacity="0.458333" d="M1299.01 -253.351L1018.35 -1001.78L482.978 -736.759L198.414 171.998L624.731 855.206L1640.49 378.189" stroke="#DBDBDB"/>
<path opacity="0.5" d="M1358.5 -130.648L1144.14 -900.693L587.704 -683.338L225.019 197.159L590.168 914.923L1643.63 528.251" stroke="#DBDBDB"/>
<path opacity="0.541667" d="M1406.86 -3.03557L1260.43 -788.834L687.167 -620.802L249.123 224.735L550.325 971.592L1633.48 678.207" stroke="#DBDBDB"/>
<path opacity="0.583333" d="M1443.71 128.496L1366.32 -667.074L780.595 -549.644L270.524 254.496L505.487 1024.76L1610.09 826.898" stroke="#DBDBDB"/>
<path opacity="0.625" d="M1468.74 262.929L1460.98 -536.359L867.256 -470.425L289.04 286.2L455.976 1074.01L1573.62 973.174" stroke="#DBDBDB"/>
<path opacity="0.666667" d="M1481.76 399.223L1543.69 -397.699L946.475 -383.763L304.516 319.588L402.154 1118.95L1524.34 1115.91" stroke="#DBDBDB"/>
<path opacity="0.708333" d="M1482.64 536.324L1613.79 -252.168L1017.63 -290.336L316.815 354.388L344.412 1159.22L1462.59 1253.99" stroke="#DBDBDB"/>
<path opacity="0.75" d="M1471.35 673.169L1670.73 -100.891L1080.17 -190.873L325.826 390.318L283.173 1194.49L1388.84 1386.36" stroke="#DBDBDB"/>
<path opacity="0.791667" d="M1447.98 808.701L1714.06 54.9629L1133.59 -86.1468L331.464 427.087L218.884 1224.49L1303.62 1511.98" stroke="#DBDBDB"/>
<path opacity="0.833333" d="M1412.67 941.871L1743.44 214.191L1177.47 23.0271L333.667 464.398L152.018 1248.95L1207.57 1629.9" stroke="#DBDBDB"/>
<path opacity="0.875" d="M1365.69 1071.65L1758.62 375.565L1211.46 135.801L332.403 501.95L83.0663 1267.68L1101.4 1739.18" stroke="#DBDBDB"/>
<path opacity="0.916667" d="M1307.37 1197.03L1759.46 537.838L1235.29 251.299L327.663 539.439L12.5367 1280.53L985.898 1838.98" stroke="#DBDBDB"/>
<path opacity="0.958333" d="M1238.13 1317.03L1745.96 699.757L1248.75 368.624L319.465 576.562L-59.0519 1287.37L861.934 1928.53" stroke="#DBDBDB"/>
<path d="M1158.48 1430.74L1718.18 860.074L1251.73 486.866L307.855 613.021L-131.173 1288.13L730.427 2007.12" stroke="#DBDBDB"/>
</svg>
